<?xml version="1.0" encoding="UTF-8" standalone="no"?>
<!-- Created with Inkscape (http://www.inkscape.org/) -->

<svg
   xmlns:dc="http://purl.org/dc/elements/1.1/"
   xmlns:cc="http://creativecommons.org/ns#"
   xmlns:rdf="http://www.w3.org/1999/02/22-rdf-syntax-ns#"
   xmlns:svg="http://www.w3.org/2000/svg"
   xmlns="http://www.w3.org/2000/svg"
   xmlns:sodipodi="http://sodipodi.sourceforge.net/DTD/sodipodi-0.dtd"
   xmlns:inkscape="http://www.inkscape.org/namespaces/inkscape"
   width="584.13934"
   height="389.53946"
   id="svg2"
   version="1.1"
   inkscape:version="0.47 r22583"
   sodipodi:docname="scenario.svg">
  <defs
     id="defs4">
    <inkscape:perspective
       sodipodi:type="inkscape:persp3d"
       inkscape:vp_x="0 : 526.18109 : 1"
       inkscape:vp_y="0 : 1000 : 0"
       inkscape:vp_z="744.09448 : 526.18109 : 1"
       inkscape:persp3d-origin="372.04724 : 350.78739 : 1"
       id="perspective10" />
    <clipPath
       clipPathUnits="userSpaceOnUse"
       id="clipPath3740">
      <path
         style="fill:none;stroke:#000000;stroke-width:1px;stroke-linecap:butt;stroke-linejoin:miter;stroke-opacity:1"
         d="m 171.56178,401.55878 -0.7955,11.13693 5.56847,3.35876 4.94975,-3.18198 c 0,0 -4.5962,-11.13693 -5.3033,-11.4021 -0.70711,-0.26516 -4.33103,0.17678 -4.41942,0.0884 z"
         id="path3742" />
    </clipPath>
    <clipPath
       clipPathUnits="userSpaceOnUse"
       id="clipPath3748">
      <path
         style="fill:none;stroke:#000000;stroke-width:0.6756683px;stroke-linecap:butt;stroke-linejoin:miter;stroke-opacity:1"
         d="m 248.64581,329.61805 -1.25415,9.43595 8.59986,0.77638 3.22494,-4.18048 -5.67352,-7.46516 -4.89713,1.43331 z"
         id="path3750" />
    </clipPath>
    <clipPath
       clipPathUnits="userSpaceOnUse"
       id="clipPath3804">
      <path
         style="fill:none;stroke:#000000;stroke-width:0.61290324px;stroke-linecap:butt;stroke-linejoin:miter;stroke-opacity:1"
         d="m 329.49776,372.98579 5.06522,-8.9928 c 0,0 -4.0901,-6.41956 -4.25262,-6.52791 -0.16252,-0.10835 -3.65671,-0.13543 -3.65671,-0.13543 0,0 -2.70868,7.61137 -2.70868,7.77389 0,0.16252 1.35434,6.09452 1.46269,6.28413 0.10835,0.1896 4.17136,1.62521 4.0901,1.59812 z"
         id="path3806" />
    </clipPath>
    <clipPath
       clipPathUnits="userSpaceOnUse"
       id="clipPath3810">
      <path
         style="fill:none;stroke:#000000;stroke-width:0.40810761px;stroke-linecap:butt;stroke-linejoin:miter;stroke-opacity:1"
         d="m 326.41958,356.82428 -3.29036,4.13209 1.42837,10.07516 5.15236,1.47939 4.33615,-5.25439 c 0,0 -3.44341,-10.10066 -3.49443,-10.20269 -0.051,-0.10203 -4.10658,-0.25507 -4.13209,-0.22956 z"
         id="path3812"
         sodipodi:nodetypes="cccccsc" />
    </clipPath>
    <clipPath
       clipPathUnits="userSpaceOnUse"
       id="clipPath3816">
      <path
         style="fill:none;stroke:#000000;stroke-width:0.61290324px;stroke-linecap:butt;stroke-linejoin:miter;stroke-opacity:1"
         d="m 298.72045,331.84149 -1.08347,13.86841 17.55221,12.24322 11.48479,-0.70426 6.71751,-5.41735 c 0,0 -21.72358,-24.5406 -21.94027,-24.5406 -0.21669,0 -8.93863,0.32504 -8.93863,0.32504 l -3.79214,4.22554 z"
         id="path3818"
         sodipodi:nodetypes="cccccscc" />
    </clipPath>
    <clipPath
       clipPathUnits="userSpaceOnUse"
       id="clipPath3832">
      <path
         style="fill:none;stroke:#000000;stroke-width:1px;stroke-linecap:butt;stroke-linejoin:miter;stroke-opacity:1"
         d="m 218.85804,359.46368 -4.05916,6.81632 c 0,0 21.67434,56.98131 22.05728,57.13449 0.38294,0.15317 7.5822,2.37422 7.5822,2.37422 l 9.11394,-1.99128 -26.49937,-66.32504 -8.19489,1.99129 z"
         id="path3834"
         sodipodi:nodetypes="ccscccc" />
    </clipPath>
    <clipPath
       clipPathUnits="userSpaceOnUse"
       id="clipPath3882">
      <path
         style="fill:none;stroke:#000000;stroke-width:1px;stroke-linecap:butt;stroke-linejoin:miter;stroke-opacity:1"
         d="m 324.64882,278.74307 0.81234,5.79466 19.64344,29.67128 32.32005,41.20423 8.11831,3.67622 9.65006,-4.90162 -11.79452,-50.54794 -52.23288,-30.48195 -6.5168,5.58512 z"
         id="path3884"
         sodipodi:nodetypes="ccccccccc" />
    </clipPath>
  </defs>
  <sodipodi:namedview
     id="base"
     pagecolor="#ffffff"
     bordercolor="#666666"
     borderopacity="1.0"
     inkscape:pageopacity="0.0"
     inkscape:pageshadow="2"
     inkscape:zoom="0.57703938"
     inkscape:cx="88.308191"
     inkscape:cy="200.68984"
     inkscape:document-units="px"
     inkscape:current-layer="layer1"
     showgrid="false"
     inkscape:window-width="1374"
     inkscape:window-height="1071"
     inkscape:window-x="363"
     inkscape:window-y="24"
     inkscape:window-maximized="0" />
  <metadata
     id="metadata7">
    <rdf:RDF>
      <cc:Work
         rdf:about="">
        <dc:format>image/svg+xml</dc:format>
        <dc:type
           rdf:resource="http://purl.org/dc/dcmitype/StillImage" />
        <dc:title></dc:title>
      </cc:Work>
    </rdf:RDF>
  </metadata>
  <g
     inkscape:label="Layer 1"
     inkscape:groupmode="layer"
     id="layer1"
     transform="translate(-95.285202,-71.905575)">
    <path
       sodipodi:type="arc"
       style="fill:none;stroke:#800000;stroke-width:1"
       id="path3874"
       sodipodi:cx="302.52179"
       sodipodi:cy="358.62994"
       sodipodi:rx="82.867996"
       sodipodi:ry="82.867996"
       d="m 385.38979,358.62994 c 0,45.76673 -37.10127,82.868 -82.868,82.868 -45.76673,0 -82.868,-37.10127 -82.868,-82.868 0,-45.76673 37.10127,-82.86799 82.868,-82.86799 45.76673,0 82.868,37.10126 82.868,82.86799 z"
       transform="translate(-18.993773,7.9651307)"
       clip-path="url(#clipPath3882)" />
    <path
       clip-path="url(#clipPath3804)"
       transform="matrix(1.6315789,0,0,1.6315789,-188.27722,-241.03202)"
       d="m 329.5,372.61218 c 0,23.33403 -18.91597,42.25 -42.25,42.25 -23.33403,0 -42.25,-18.91597 -42.25,-42.25 0,-23.33403 18.91597,-42.25 42.25,-42.25 23.33403,0 42.25,18.91597 42.25,42.25 z"
       sodipodi:ry="42.25"
       sodipodi:rx="42.25"
       sodipodi:cy="372.61218"
       sodipodi:cx="287.25"
       id="path3872"
       style="fill:none;stroke:#00ff00;stroke-width:0.61290324"
       sodipodi:type="arc" />
    <g
       id="g2836"
       transform="translate(-365.59114,-30.180195)">
      <path
         style="fill:#0000ff;fill-opacity:1;stroke:#000000;stroke-width:2.03383493"
         d="m 238.84505,332.04631 -67.86688,-1e-5 33.93344,-88.88269 33.93344,88.8827 z"
         id="path2838" />
      <path
         sodipodi:type="arc"
         style="fill:#ffffff;fill-opacity:1"
         id="path2840"
         sodipodi:cx="204.97258"
         sodipodi:cy="292.9295"
         sodipodi:rx="0.9722718"
         sodipodi:ry="0.9722718"
         d="m 205.94485,292.9295 c 0,0.53698 -0.4353,0.97228 -0.97227,0.97228 -0.53697,0 -0.97227,-0.4353 -0.97227,-0.97228 0,-0.53697 0.4353,-0.97227 0.97227,-0.97227 0.53697,0 0.97227,0.4353 0.97227,0.97227 z"
         transform="translate(0,8.5)" />
    </g>
    <g
       id="g2863"
       transform="translate(-386.64109,130.06245)">
      <path
         id="path2865"
         d="m 238.84505,332.04631 -67.86688,-1e-5 33.93344,-88.88269 33.93344,88.8827 z"
         style="fill:#0000ff;fill-opacity:1;stroke:#000000;stroke-width:2.03383493" />
      <path
         transform="translate(0,8.5)"
         d="m 205.94485,292.9295 c 0,0.53698 -0.4353,0.97228 -0.97227,0.97228 -0.53697,0 -0.97227,-0.4353 -0.97227,-0.97228 0,-0.53697 0.4353,-0.97227 0.97227,-0.97227 0.53697,0 0.97227,0.4353 0.97227,0.97227 z"
         sodipodi:ry="0.9722718"
         sodipodi:rx="0.9722718"
         sodipodi:cy="292.9295"
         sodipodi:cx="204.97258"
         id="path2867"
         style="fill:#ffffff;fill-opacity:1"
         sodipodi:type="arc" />
    </g>
    <g
       transform="matrix(0.85251052,0,0,0.86002755,172.63219,-0.04889668)"
       id="g3654">
      <path
         style="fill:none;stroke:#000000;stroke-width:1.43961596px;stroke-linecap:butt;stroke-linejoin:miter;stroke-opacity:1"
         d="m 129.62035,88.088347 0,338.636783 458.47269,0 0,1.04196"
         id="path3656" />
      <path
         sodipodi:type="star"
         style="fill:#000000;fill-opacity:1;stroke:none"
         id="path3658"
         sodipodi:sides="3"
         sodipodi:cx="168.29141"
         sodipodi:cy="157.87212"
         sodipodi:r1="6.3245554"
         sodipodi:r2="3.1622777"
         sodipodi:arg1="0.52359878"
         sodipodi:arg2="1.5707963"
         inkscape:flatsided="true"
         inkscape:rounded="0"
         inkscape:randomized="0"
         d="m 173.76864,161.03439 -10.95445,0 5.47722,-9.48683 5.47723,9.48683 z"
         transform="translate(-38.183766,-67.882251)" />
      <path
         transform="matrix(0,1,-1,0,746.01803,258.4679)"
         d="m 173.76864,161.03439 -10.95445,0 5.47722,-9.48683 5.47723,9.48683 z"
         inkscape:randomized="0"
         inkscape:rounded="0"
         inkscape:flatsided="true"
         sodipodi:arg2="1.5707963"
         sodipodi:arg1="0.52359878"
         sodipodi:r2="3.1622777"
         sodipodi:r1="6.3245554"
         sodipodi:cy="157.87212"
         sodipodi:cx="168.29141"
         sodipodi:sides="3"
         id="path3660"
         style="fill:#000000;fill-opacity:1;stroke:none"
         sodipodi:type="star" />
    </g>
    <path
       style="fill:none;stroke:#00ff00;stroke-width:4;stroke-linecap:butt;stroke-linejoin:miter;stroke-opacity:1"
       d="M 282.87023,366.96443 128.74745,427.6554"
       id="path3728"
       sodipodi:nodetypes="cc" />
    <text
       xml:space="preserve"
       style="font-size:40px;font-style:normal;font-weight:normal;fill:#000000;fill-opacity:1;stroke:none;font-family:Bitstream Vera Sans"
       x="309.76199"
       y="461.44504"
       id="text3668"><tspan
         sodipodi:role="line"
         id="tspan3670"
         x="309.76199"
         y="461.44504">x</tspan></text>
    <text
       xml:space="preserve"
       style="font-size:40px;font-style:normal;font-weight:normal;fill:#000000;fill-opacity:1;stroke:none;font-family:Bitstream Vera Sans"
       x="94.093796"
       y="288.04132"
       id="text3672"><tspan
         sodipodi:role="line"
         id="tspan3674"
         x="94.093796"
         y="288.04132">y</tspan></text>
    <path
       style="fill:none;stroke:#ff0000;stroke-width:4;stroke-linecap:butt;stroke-linejoin:miter;stroke-opacity:1"
       d="M 282.85315,367.01045 315.54687,253.54968"
       id="path3730"
       sodipodi:nodetypes="cc" />
    <path
       transform="matrix(1.6315789,0,0,1.6315789,-185.62816,-241.24822)"
       d="m 329.5,372.61218 c 0,23.33403 -18.91597,42.25 -42.25,42.25 -23.33403,0 -42.25,-18.91597 -42.25,-42.25 0,-23.33403 18.91597,-42.25 42.25,-42.25 23.33403,0 42.25,18.91597 42.25,42.25 z"
       sodipodi:ry="42.25"
       sodipodi:rx="42.25"
       sodipodi:cy="372.61218"
       sodipodi:cx="287.25"
       id="path3798"
       style="fill:none;stroke:#ff0000;stroke-width:0.61290324"
       sodipodi:type="arc"
       clip-path="url(#clipPath3816)" />
    <g
       transform="matrix(0.79183429,-0.31586808,0.31865325,0.7988163,44.214308,67.044149)"
       id="g3718"
       inkscape:transform-center-x="-128.90737"
       inkscape:transform-center-y="-136.66943"
       style="fill:none;stroke:#999999">
      <path
         style="fill:none;stroke:#999999;stroke-width:1.43961596px;stroke-linecap:butt;stroke-linejoin:miter;stroke-opacity:1"
         d="m 129.62035,88.088347 0,338.636783 458.47269,0 0,1.04196"
         id="path3720" />
      <path
         sodipodi:type="star"
         style="fill:none;stroke:#999999"
         id="path3722"
         sodipodi:sides="3"
         sodipodi:cx="168.29141"
         sodipodi:cy="157.87212"
         sodipodi:r1="6.3245554"
         sodipodi:r2="3.1622777"
         sodipodi:arg1="0.52359878"
         sodipodi:arg2="1.5707963"
         inkscape:flatsided="true"
         inkscape:rounded="0"
         inkscape:randomized="0"
         d="m 173.76864,161.03439 -10.95445,0 5.47722,-9.48683 5.47723,9.48683 z"
         transform="translate(-38.183766,-67.882251)" />
      <path
         transform="matrix(0,1,-1,0,746.01803,258.4679)"
         d="m 173.76864,161.03439 -10.95445,0 5.47722,-9.48683 5.47723,9.48683 z"
         inkscape:randomized="0"
         inkscape:rounded="0"
         inkscape:flatsided="true"
         sodipodi:arg2="1.5707963"
         sodipodi:arg1="0.52359878"
         sodipodi:r2="3.1622777"
         sodipodi:r1="6.3245554"
         sodipodi:cy="157.87212"
         sodipodi:cx="168.29141"
         sodipodi:sides="3"
         id="path3724"
         style="fill:none;stroke:#999999"
         sodipodi:type="star" />
    </g>
    <path
       sodipodi:type="arc"
       style="fill:none;stroke:#00ff00;stroke-width:0.61290324"
       id="path3796"
       sodipodi:cx="287.25"
       sodipodi:cy="372.61218"
       sodipodi:rx="42.25"
       sodipodi:ry="42.25"
       d="m 329.5,372.61218 c 0,23.33403 -18.91597,42.25 -42.25,42.25 -23.33403,0 -42.25,-18.91597 -42.25,-42.25 0,-23.33403 18.91597,-42.25 42.25,-42.25 23.33403,0 42.25,18.91597 42.25,42.25 z"
       transform="matrix(1.6315789,0,0,1.6315789,-339.92105,-180.83401)"
       clip-path="url(#clipPath3804)" />
    <path
       style="fill:#550000;fill-opacity:1;stroke:#000000;stroke-width:0.68086845"
       d="m 300.35171,256.71334 13.76032,-18.07885 16.79704,27.0608 -30.55736,-8.98195 z"
       id="path3664" />
    <g
       id="g2832"
       transform="matrix(0.14937746,0.38968612,-0.38968612,0.14937746,369.68769,241.91386)">
      <path
         id="path2823"
         d="m 238.84505,332.04631 -67.86688,-1e-5 33.93344,-88.88269 33.93344,88.8827 z"
         style="fill:#0000ff;fill-opacity:1;stroke:#000000;stroke-width:2.03383493" />
      <path
         transform="translate(0,8.5)"
         d="m 205.94485,292.9295 c 0,0.53698 -0.4353,0.97228 -0.97227,0.97228 -0.53697,0 -0.97227,-0.4353 -0.97227,-0.97228 0,-0.53697 0.4353,-0.97227 0.97227,-0.97227 0.53697,0 0.97227,0.4353 0.97227,0.97227 z"
         sodipodi:ry="0.9722718"
         sodipodi:rx="0.9722718"
         sodipodi:cy="292.9295"
         sodipodi:cx="204.97258"
         id="path2830"
         style="fill:#ffffff;fill-opacity:1"
         sodipodi:type="arc" />
    </g>
    <path
       sodipodi:type="arc"
       style="fill:#ffffff;fill-opacity:1"
       id="path3666"
       sodipodi:cx="204.97258"
       sodipodi:cy="292.9295"
       sodipodi:rx="0.9722718"
       sodipodi:ry="0.9722718"
       d="m 205.94485,292.9295 c 0,0.53698 -0.4353,0.97228 -0.97227,0.97228 -0.53697,0 -0.97227,-0.4353 -0.97227,-0.97228 0,-0.53697 0.4353,-0.97227 0.97227,-0.97227 0.53697,0 0.97227,0.4353 0.97227,0.97227 z"
       transform="matrix(-0.20275455,0.26638703,-0.26638703,-0.20275455,434.96717,258.68861)" />
    <g
       id="g3649"
       transform="matrix(0.85251052,0,0,0.86002755,18.381676,60.501206)">
      <path
         id="path2869"
         d="m 129.62035,88.088347 0,338.636783 458.47269,0 0,1.04196"
         style="fill:none;stroke:#000000;stroke-width:1.43961596px;stroke-linecap:butt;stroke-linejoin:miter;stroke-opacity:1" />
      <path
         transform="translate(-38.183766,-67.882251)"
         d="m 173.76864,161.03439 -10.95445,0 5.47722,-9.48683 5.47723,9.48683 z"
         inkscape:randomized="0"
         inkscape:rounded="0"
         inkscape:flatsided="true"
         sodipodi:arg2="1.5707963"
         sodipodi:arg1="0.52359878"
         sodipodi:r2="3.1622777"
         sodipodi:r1="6.3245554"
         sodipodi:cy="157.87212"
         sodipodi:cx="168.29141"
         sodipodi:sides="3"
         id="path3645"
         style="fill:#000000;fill-opacity:1;stroke:none"
         sodipodi:type="star" />
      <path
         sodipodi:type="star"
         style="fill:#000000;fill-opacity:1;stroke:none"
         id="path3647"
         sodipodi:sides="3"
         sodipodi:cx="168.29141"
         sodipodi:cy="157.87212"
         sodipodi:r1="6.3245554"
         sodipodi:r2="3.1622777"
         sodipodi:arg1="0.52359878"
         sodipodi:arg2="1.5707963"
         inkscape:flatsided="true"
         inkscape:rounded="0"
         inkscape:randomized="0"
         d="m 173.76864,161.03439 -10.95445,0 5.47722,-9.48683 5.47723,9.48683 z"
         transform="matrix(0,1,-1,0,746.01803,258.4679)" />
    </g>
  </g>
</svg>
